<svg width="26" height="20" viewBox="0 0 26 20" fill="none" xmlns="http://www.w3.org/2000/svg">
<path fill-rule="evenodd" clip-rule="evenodd" d="M13.5 4.75025C13.9142 4.75025 14.25 5.08603 14.25 5.50025V12.2502C14.25 12.6645 13.9142 13.0002 13.5 13.0002H12.75C12.3358 13.0002 12 12.6645 12 12.2502V5.50025C12 5.08603 12.3358 4.75025 12.75 4.75025H13.5ZM1.97727 13.2909C1.30227 13.2909 0.75 12.6996 0.75 11.9769C0.759695 10.9726 0.783758 10.4187 0.822192 10.3152C0.860626 10.2116 1.49111 8.61945 2.71364 5.53861C2.89773 5.07873 4.40981 4.75025 4.90072 4.75025H9.21C9.885 4.75025 10.875 5.34152 10.875 6.06419V13.0002L6.80457 17.2123L6.80226 17.2147C6.44071 17.5862 5.84646 17.5942 5.47498 17.2327C5.35227 17.0356 5.22955 16.7728 5.22955 16.51C5.22955 16.4443 5.22955 16.3786 5.22955 16.3129L5.84318 13.2909H1.97727Z" fill="#C4C4C4"/>
<path d="M25.21 13.8902V15.0002H20.41V13.8902H22.168V8.83224C22.168 8.63224 22.174 8.42624 22.186 8.21424L20.938 9.25824C20.866 9.31424 20.794 9.35024 20.722 9.36624C20.654 9.37824 20.588 9.37824 20.524 9.36624C20.464 9.35424 20.41 9.33424 20.362 9.30624C20.314 9.27424 20.278 9.24024 20.254 9.20424L19.786 8.56224L22.432 6.31224H23.65V13.8902H25.21Z" fill="#262626"/>
</svg>
