<svg width="26" height="20" viewBox="0 0 26 20" fill="none" xmlns="http://www.w3.org/2000/svg">
<path fill-rule="evenodd" clip-rule="evenodd" d="M1.5 15.2502C1.08579 15.2502 0.75 14.9145 0.75 14.5002V7.75024C0.75 7.33603 1.08579 7.00024 1.5 7.00024H2.25C2.66421 7.00024 3 7.33603 3 7.75024V14.5002C3 14.9145 2.66421 15.2502 2.25 15.2502H1.5ZM13.0227 6.70963C13.6977 6.70963 14.25 7.3009 14.25 8.02354C14.2403 9.02786 14.2162 9.58178 14.1778 9.68532C14.1394 9.78885 13.5089 11.381 12.2864 14.4619C12.1023 14.9218 10.5902 15.2502 10.0993 15.2502H5.79C5.115 15.2502 4.125 14.659 4.125 13.9363V7.00024L8.19543 2.78818L8.19774 2.78579C8.55929 2.41431 9.15354 2.40625 9.52502 2.7678C9.64773 2.9649 9.77045 3.22768 9.77045 3.49047C9.77045 3.55617 9.77045 3.62187 9.77045 3.68756L9.15682 6.70963H13.0227Z" fill="#C4C4C4"/>
<path d="M24.886 13.6202C25.046 13.6202 25.172 13.6662 25.264 13.7582C25.36 13.8462 25.408 13.9642 25.408 14.1122V15.0002H19.456V14.5082C19.456 14.4082 19.476 14.3042 19.516 14.1962C19.56 14.0842 19.628 13.9842 19.72 13.8962L22.354 11.2562C22.574 11.0322 22.77 10.8182 22.942 10.6142C23.118 10.4102 23.264 10.2082 23.38 10.0082C23.496 9.80824 23.584 9.60624 23.644 9.40224C23.708 9.19424 23.74 8.97624 23.74 8.74824C23.74 8.54024 23.71 8.35824 23.65 8.20224C23.59 8.04224 23.504 7.90824 23.392 7.80024C23.284 7.69224 23.152 7.61224 22.996 7.56024C22.844 7.50424 22.672 7.47624 22.48 7.47624C22.304 7.47624 22.14 7.50224 21.988 7.55424C21.84 7.60224 21.708 7.67224 21.592 7.76424C21.476 7.85224 21.378 7.95624 21.298 8.07624C21.218 8.19624 21.158 8.32824 21.118 8.47224C21.05 8.65624 20.962 8.77824 20.854 8.83824C20.746 8.89824 20.59 8.91224 20.386 8.88024L19.606 8.74224C19.666 8.32624 19.782 7.96224 19.954 7.65024C20.126 7.33424 20.34 7.07224 20.596 6.86424C20.856 6.65224 21.152 6.49424 21.484 6.39024C21.82 6.28224 22.18 6.22824 22.564 6.22824C22.964 6.22824 23.33 6.28824 23.662 6.40824C23.994 6.52424 24.278 6.69024 24.514 6.90624C24.75 7.12224 24.934 7.38224 25.066 7.68624C25.198 7.99024 25.264 8.32824 25.264 8.70024C25.264 9.02024 25.216 9.31624 25.12 9.58824C25.028 9.86024 24.902 10.1202 24.742 10.3682C24.586 10.6162 24.402 10.8562 24.19 11.0882C23.978 11.3202 23.756 11.5562 23.524 11.7962L21.568 13.7942C21.756 13.7382 21.942 13.6962 22.126 13.6682C22.314 13.6362 22.492 13.6202 22.66 13.6202H24.886Z" fill="#262626"/>
</svg>